# xmcd
#
# Track frame offsets: 
#        150
#        2579
#        21810
#        37581
#        54500
#        75132
#        94248
#        120095
#        142455
#        165403
#        180487
#        200510
#        220161
#        231508
#        249015
#        275857
#        292843
#        310440
#        330603
#
# Disc length: 4641 seconds
#
# Revision: 0
# Processed by: cddbd v1.5.2PL0 Copyright (c) Steve Scherf et al.
# Submitted via: ExactAudioCopy v0.99pb5
#
DISCID=f8121f13
DTITLE=O.C. - Jewelz (JP)
DYEAR=2007
DGENRE=Freestyle
TTITLE0=Intro
TTITLE1=My World
TTITLE2=War Games
TTITLE3=Can't Go Wrong
TTITLE4=Chosen One
TTITLE5=Dangerous
TTITLE6=Win The G
TTITLE7=Far From Yours
TTITLE8=Stronjay
TTITLE9=M.U.G.
TTITLE10=Crow
TTITLE11=You And Yours
TTITLE12=Hypocrite
TTITLE13=It's Only Right
TTITLE14=Jewelz
TTITLE15=Bum Me Slow
TTITLE16=Champagne Choughts
TTITLE17=Dangerous(Remix)
TTITLE18=Can't Go Wrong(Remix)
EXTD=
EXTT0=
EXTT1=
EXTT2=
EXTT3=
EXTT4=
EXTT5=
EXTT6=
EXTT7=
EXTT8=
EXTT9=
EXTT10=
EXTT11=
EXTT12=
EXTT13=
EXTT14=
EXTT15=
EXTT16=
EXTT17=
EXTT18=
PLAYORDER=
